# xmcd CD database file
#
# Track frame offsets:
#	150
#	19743
#	36734
#
# Disc length: 785 seconds
#
# Revision: 0
# Processed by: cddbd v1.5.1PL0 Copyright (c) Steve Scherf et al.
# Submitted via: CDex 1.51
#
DISCID=22030f03
DTITLE=小野真弓 - シーソー
DYEAR=2004
DGENRE=Pop
TTITLE0=シーソー
TTITLE1=Happiness
TTITLE2=風のケーキ
EXTD=YEAR: 2004
EXTT0=
EXTT1=
EXTT2=
PLAYORDER=
